HIERARCHY
ROOT hip
{
  OFFSET 0 0 0
  CHANNELS 6 Xposition Yposition Zposition Zrotation Yrotation Xrotation
  JOINT abdomen
  {
    OFFSET 0 20.6881 -0.73152
    CHANNELS 3 Zrotation Xrotation Yrotation
    JOINT chest
    {
      OFFSET 0 11.7043 -0.48768
      CHANNELS 3 Zrotation Xrotation Yrotation
      JOINT neck
      {
        OFFSET 0 22.1894 -2.19456
        CHANNELS 3 Zrotation Xrotation Yrotation
        JOINT head
        {
          OFFSET -0.24384 7.07133 1.2192
          CHANNELS 3 Zrotation Xrotation Yrotation
          JOINT leftEye
          {
            OFFSET 4.14528 8.04674 8.04672
            CHANNELS 3 Zrotation Xrotation Yrotation
            End Site
            {
              OFFSET 1 0 0
            }
          }
          JOINT rightEye
          {
            OFFSET -3.6576 8.04674 8.04672
            CHANNELS 3 Zrotation Xrotation Yrotation
            End Site
            {
              OFFSET 1 0 0
            }
          }
        }
      }
      JOINT rCollar
      {
        OFFSET -2.68224 19.2634 -4.8768
        CHANNELS 3 Zrotation Xrotation Yrotation
        JOINT rShldr
        {
          OFFSET -8.77824 -1.95073 1.46304
          CHANNELS 3 Zrotation Xrotation Yrotation
          JOINT rForeArm
          {
            OFFSET -28.1742 -1.7115 0.48768
            CHANNELS 3 Zrotation Xrotation Yrotation
            JOINT rHand
            {
              OFFSET -22.5879 0.773209 7.07136
              CHANNELS 3 Zrotation Xrotation Yrotation
              JOINT rThumb1
              {
                OFFSET -1.2192 -0.487915 3.41376
                CHANNELS 3 Zrotation Xrotation Yrotation
                JOINT rThumb2
                {
                  OFFSET -3.37035 -0.52449 3.41376
                  CHANNELS 3 Zrotation Xrotation Yrotation
                  End Site
                  {
                    OFFSET -1.78271 -1.18214 1.43049
                  }
                }
              }
              JOINT rIndex1
              {
                OFFSET -7.75947 0.938293 5.60832
                CHANNELS 3 Zrotation Xrotation Yrotation
                JOINT rIndex2
                {
                  OFFSET -2.54057 -0.884171 1.56538
                  CHANNELS 3 Zrotation Xrotation Yrotation
                  End Site
                  {
                    OFFSET -1.62519 -0.234802 1.16502
                  }
                }
              }
              JOINT rMid1
              {
                OFFSET -8.24714 1.18213 3.41376
                CHANNELS 3 Zrotation Xrotation Yrotation
                JOINT rMid2
                {
                  OFFSET -3.10165 -0.590103 1.0647
                  CHANNELS 3 Zrotation Xrotation Yrotation
                  End Site
                  {
                    OFFSET -2.48547 -0.328903 0.83742
                  }
                }
              }
              JOINT rRing1
              {
                OFFSET -8.82822 0.546677 1.51678
                CHANNELS 3 Zrotation Xrotation Yrotation
                JOINT rRing2
                {
                  OFFSET -2.60934 -0.819778 -0.0198488
                  CHANNELS 3 Zrotation Xrotation Yrotation
                  End Site
                  {
                    OFFSET -2.33842 -0.294052 0.168128
                  }
                }
              }
              JOINT rPinky1
              {
                OFFSET -8.27202 -0.0477905 -0.4584
                CHANNELS 3 Zrotation Xrotation Yrotation
                JOINT rPinky2
                {
                  OFFSET -1.82734 -0.647385 -0.700984
                  CHANNELS 3 Zrotation Xrotation Yrotation
                  End Site
                  {
                    OFFSET -1.69225 -0.51767 -0.607171
                  }
                }
              }
            }
          }
        }
      }
      JOINT lCollar
      {
        OFFSET 2.68224 19.2634 -4.8768
        CHANNELS 3 Zrotation Xrotation Yrotation
        JOINT lShldr
        {
          OFFSET 8.77824 -1.95073 1.46304
          CHANNELS 3 Zrotation Xrotation Yrotation
          JOINT lForeArm
          {
            OFFSET 28.1742 -1.7115 0.48768
            CHANNELS 3 Zrotation Xrotation Yrotation
            JOINT lHand
            {
              OFFSET 22.5879 0.773209 7.07136
              CHANNELS 3 Zrotation Xrotation Yrotation
              JOINT lThumb1
              {
                OFFSET 1.2192 -0.487915 3.41376
                CHANNELS 3 Zrotation Xrotation Yrotation
                JOINT lThumb2
                {
                  OFFSET 3.37035 -0.52449 3.41376
                  CHANNELS 3 Zrotation Xrotation Yrotation
                  End Site
                  {
                    OFFSET 1.78271 -1.18214 1.43049
                  }
                }
              }
              JOINT lIndex1
              {
                OFFSET 7.75947 0.938293 5.60832
                CHANNELS 3 Zrotation Xrotation Yrotation
                JOINT lIndex2
                {
                  OFFSET 2.54057 -0.884171 1.56538
                  CHANNELS 3 Zrotation Xrotation Yrotation
                  End Site
                  {
                    OFFSET 1.62519 -0.234802 1.16502
                  }
                }
              }
              JOINT lMid1
              {
                OFFSET 8.24714 1.18213 3.41376
                CHANNELS 3 Zrotation Xrotation Yrotation
                JOINT lMid2
                {
                  OFFSET 3.10165 -0.590103 1.0647
                  CHANNELS 3 Zrotation Xrotation Yrotation
                  End Site
                  {
                    OFFSET 2.48547 -0.328903 0.83742
                  }
                }
              }
              JOINT lRing1
              {
                OFFSET 8.82822 0.546677 1.51678
                CHANNELS 3 Zrotation Xrotation Yrotation
                JOINT lRing2
                {
                  OFFSET 2.60934 -0.819778 -0.0198488
                  CHANNELS 3 Zrotation Xrotation Yrotation
                  End Site
                  {
                    OFFSET 2.33842 -0.294052 0.168128
                  }
                }
              }
              JOINT lPinky1
              {
                OFFSET 8.27202 -0.0477905 -0.4584
                CHANNELS 3 Zrotation Xrotation Yrotation
                JOINT lPinky2
                {
                  OFFSET 1.82734 -0.647385 -0.700984
                  CHANNELS 3 Zrotation Xrotation Yrotation
                  End Site
                  {
                    OFFSET 1.69225 -0.51767 -0.607171
                  }
                }
              }
            }
          }
        }
      }
    }
  }
  JOINT rButtock
  {
    OFFSET -8.77824 4.35084 1.2192
    CHANNELS 3 Zrotation Xrotation Yrotation
    JOINT rThigh
    {
      OFFSET 0 -1.70687 -2.19456
      CHANNELS 3 Zrotation Xrotation Yrotation
      JOINT rShin
      {
        OFFSET 0 -36.8199 0.73152
        CHANNELS 3 Zrotation Xrotation Yrotation
        JOINT rFoot
        {
          OFFSET 0.73152 -45.1104 -5.12064
          CHANNELS 3 Zrotation Xrotation Yrotation
          End Site
          {
            OFFSET -1.1221 -3.69964 12.103
          }
        }
      }
    }
  }
  JOINT lButtock
  {
    OFFSET 8.77824 4.35084 1.2192
    CHANNELS 3 Zrotation Xrotation Yrotation
    JOINT lThigh
    {
      OFFSET 0 -1.70687 -2.19456
      CHANNELS 3 Zrotation Xrotation Yrotation
      JOINT lShin
      {
        OFFSET 0 -36.8199 0.73152
        CHANNELS 3 Zrotation Xrotation Yrotation
        JOINT lFoot
        {
          OFFSET -0.73152 -45.1104 -5.12064
          CHANNELS 3 Zrotation Xrotation Yrotation
          End Site
          {
            OFFSET 1.1221 -3.69964 12.103
          }
        }
      }
    }
  }
}
MOTION
Frames:	4
Frame Time:	0.03333
-1.0763386264443398 32.25456476211548 2.675505541265011 -3.1385654118351236 3.525681110640994 1.6027428421661023 -1.0169388613952648 8.543052057237501 1.4378551386911187 0.9360886315293546 -4.8898630541800046 0.011732103879539832 -2.700094160990162 8.654573678458178 -2.8793153366035344 4.282060314753026 -13.798152647094767 -2.365754693570745 -0.5399076708692905 0.07790697862259016 -0.2609745912753114 0.149406319328996 -0.35792701878995326 -0.25423250087342125 0.9118910855689977 0.2716735490016075 0.47807130027052047 25.71906707439926 15.643339350431114 8.813250925708621 -13.155014350883551 -15.828551882607057 35.36121097476041 -1.8810234252509335 -7.337214602670308 -4.32375819274913 0.29917938779991 -0.0647039761630109 -1.2712752558492644 -0.6127517450891822 -0.4050332593503709 1.3557897754831807 -0.15732068096782928 -1.5651004957113983 -0.06839642712113005 5.013958199889028 2.53001092471262 -0.3122674976731089 0.1505896362624875 0.34467290330341127 -0.3459916367413262 1.5229732762929349 0.24051123780024744 0.12146173425801277 1.0842178255454773 0.16102237669371175 -0.6907829210968756 5.332607442124456 1.54688651562909 -0.38008377893150436 -0.677025372643736 -0.1225387963931856 0.7183346235482376 2.045408362769981 0.3903281822324508 0.03335928423657696 1.1072820937121408 -0.3783198558979221 -1.0786219796245327 -29.703102756889358 16.474305287496744 -13.50979572071517 11.954053651383747 -16.20852384387133 -33.2480802191527 3.2984705990322887 -6.767721540524284 3.872266466912009 -0.5578063950327204 -0.232585603681241 -0.5960982497888102 -0.25624735331772214 0.27434484665817005 0.1344206308259368 -0.4657639397163922 -0.2666427678323493 0.5507406176971951 -3.136279432897285 2.3576807696415556 -0.8133278273077171 -0.7909206980444027 -0.4390797780113275 0.522385674327269 -2.4496560970049472 1.1462062745749857 -0.48665343296264146 -0.7983461808892643 0.8749255681723598 -0.9985910522939065 -5.099923814556455 -0.8878109868458532 0.4831083513399933 -0.6361137668149761 -0.4961848552276885 -0.71859956018284 -0.9776883255561404 -0.9208427955282399 -0.7809301590010839 0.8011073382220949 -1.033067819511721 0.7784585376560385 -16.01288332038007 -20.056242610906313 -13.69218226212202 -2.8251470272868677 33.056968111081154 4.074297486145462 -1.5638211159024904 -5.530469911530086 -4.774093055295581 0.1430954913401687 0.14470280027051666 -1.1833666658063806 20.508372105657184 -18.467947006216964 17.257767258884932 3.799578739991087 34.30854563497263 -2.358139672976416 2.825639868124166 -6.021467024639738 7.246468709357518
-1.796824112534523 39.08040523529053 4.87668402493 -3.948774830899907 4.0765860264042395 1.7202885835130235 -1.1865295770006254 10.04946906170403 2.2518361028382183 1.1861818776831894 -5.998671695171644 0.3337186405764595 -3.303879041637881 10.230134395440038 -2.956911408216757 5.24821661294754 -16.30696394528414 -3.114540221429604 -0.46603501284907706 0.16524890308820092 -0.17178571428902045 0.20983049495601294 -0.3588472000176273 -0.15667370730695568 0.68143778156927 0.2565166655422616 0.24533399168451112 31.083371290027628 19.023219187624196 10.577925920429795 -15.77513468065568 -19.017374253241957 42.723376258468775 -2.5523520466009084 -8.340052004915552 -4.618096657294368 0.2146703910142678 -0.04324472241002088 -0.9037454446535228 -0.353501776579299 -0.19317285084932867 1.0059871866696783 -0.009178413542748424 -1.1299777451070354 -0.07825228337175266 5.8338600842728825 3.178635997261473 -0.1451084894948316 0.04136213150971628 0.14408188004606695 -0.26061843426269227 1.9483148758407223 0.3538449669046657 0.20946199824616282 0.8310800225691092 0.10892366805641143 -0.5930191151336038 6.425064183356261 1.2612529137376227 -0.4355047342697812 -0.4766811433310113 -0.09145028325137342 0.6213895331508682 2.0488565410837793 0.1570130823313407 0.09252553111754797 0.9020025724764059 -0.28471867670780293 -0.9414527846270475 -36.345741762482724 20.08854599058589 -16.57724648357259 14.468625360364376 -18.884653432384855 -40.348693653879174 3.8922908740111937 -8.476517476985114 3.9559618974540527 -0.410265744543556 -0.28219310754048493 -0.6073101120330919 -0.1821087714871278 0.36021673298749424 -0.06705863718862652 -0.5281112938424437 -0.31042636148539376 0.40255576831150747 -4.213526623507941 3.0726481099289766 -0.8248138576141514 -0.6428845119948686 -0.449087072362454 0.33497115319593707 -2.5677003354395733 1.1049775451974964 -0.4604344711730782 -0.593739806812746 0.7661256172533755 -0.813600874791959 -6.390921348355836 -0.46225685102100217 0.4151982350217895 -0.4853447046846436 -0.5227296917458555 -0.7409789418026512 -1.2532724780226976 -0.9285095761498734 -0.6762778404555898 0.649807655770617 -0.8256814517213017 0.6782048075751798 -19.81872961270829 -23.805200257637495 -17.002280617886022 -3.4724378650700407 40.07694774756105 4.650817105400137 -2.2063543000419266 -6.545676786362224 -5.909705919911289 0.2157097270264469 0.12054690245584096 -0.9050754105509712 24.81715254733012 -22.00335537345311 20.455894054716683 4.263361391239647 40.99779385146217 -3.35789601957575 3.57669451289135 -7.084709339244106 8.891067270922576
-2.2574841044843197 44.50660943984985 6.63287527859211 -4.608840043421708 4.414977930435589 1.8249394613154895 -1.3820245320851998 11.226315778339105 2.7526716765604506 1.4930957877074778 -6.909881255927521 0.6114396017165993 -3.757342557711021 11.49606470809865 -3.0359356296967466 6.016911715350163 -18.354555620710997 -3.5724770845222786 -0.3277933981106206 0.16693694698897255 -0.10020631896306531 0.17173810306802872 -0.2763774415860571 -0.10364817401579639 0.508410573676894 0.21153117203870647 0.1288719558989477 35.40863639326239 21.79210445261379 11.993354559868 -17.843490131159378 -21.596872032925436 48.690666649498795 -3.1156415894332685 -9.269051647138374 -4.842873914011256 0.16091933688677976 0.017519708695453773 -0.6919326340332591 -0.1998288168346532 -0.05840083880710645 0.7113740204537599 0.04215293934955682 -0.8377479947463341 -0.08477201909964717 6.38277677465742 3.7220740221580138 -0.005129845592649811 -0.0016104572206685143 0.061360818677807835 -0.20032966179988554 2.2984798915670583 0.45212832081210796 0.2668388156058698 0.6228598380914193 0.06836333672223117 -0.47373183563088805 7.33046296067575 1.0772244588873245 -0.38763914209230205 -0.3223501375485171 -0.08839537442337944 0.47978893276422 2.1077267953137655 -0.03071605438863492 0.12170815467666213 0.7408231281122104 -0.1808907833394706 -0.7985843303757156 -41.614409669352575 22.92126108091654 -19.126329430882002 16.528052046075572 -21.03876190791806 -46.02549609950855 4.338528476829283 -9.823376139798269 4.006811802051152 -0.30228720391354513 -0.30590346891394954 -0.5182746474988618 -0.1411136292431675 0.34492778141724384 -0.15704547236904537 -0.4559654463826271 -0.23891155947186285 0.3006033488397254 -5.073645088611654 3.642797297122145 -0.8050075363207309 -0.51028375305677 -0.4300347666008059 0.16903720347832502 -2.655839230923534 1.076668118635086 -0.35965046761661784 -0.44074805171610315 0.61921321076572 -0.655456008770806 -7.345262273059875 -0.14202108390742715 0.3513410355631949 -0.3653010350922018 -0.46475963510413587 -0.6480242293453032 -1.4561357131178347 -0.9143314908151021 -0.5017540207221877 0.5105702474759403 -0.622458617838534 0.5453670730893934 -22.821806696411986 -26.862331458432674 -19.708136897214736 -3.9948948294967717 45.612877541558916 5.1069337230790035 -2.7696538747146295 -7.398529210849512 -6.904107184757922 0.1649957592020873 0.08221110503739569 -0.6790256042143449 28.14845266405149 -24.88390569363595 23.041672193341988 4.6221448250380694 46.39734867339697 -4.129552862757219 4.0387454977419 -7.877617462254424 10.173889495172276
-2.518273424357176 48.89909625053406 8.028721809387207 -5.155542898741515 4.619122893217162 1.9136922200511044 -1.5797693941710587 12.170431482968812 3.0667865269606365 1.832929501983935 -7.655060870791436 0.8390029352846182 -4.113440019618336 12.513615191589748 -3.088850385857305 6.63008682544618 -20.04067660978785 -3.845217637138289 -0.17802327782682884 0.13378024723039522 -0.05293039089045514 0.09030949491763585 -0.1641722678398512 -0.07849877716157475 0.37246745099627904 0.15842546406607885 0.07427873411071179 38.90845264473361 24.042983048307736 13.13892925538817 -19.497031117895272 -23.71526715683594 53.541641167865684 -3.6047108816496847 -10.115347943796097 -5.024582559142982 0.11449382072668905 0.0902457753891777 -0.5635797191503795 -0.11142471791182613 0.030955644618114272 0.4743537563713295 0.042554746571823975 -0.6390962116047445 -0.09745397284106835 6.746967583844377 4.174085269258879 0.10343953308099366 0.011733998189817452 0.014902085386792665 -0.15424637546980952 2.5852616055693227 0.5393052268401541 0.3105534136761266 0.4613938993080534 0.04553961928039888 -0.35115251166993194 8.078591509713817 0.943023941579562 -0.3013356465043713 -0.18242346711705087 -0.09473944622355769 0.32456007727098646 2.177670920622458 -0.18164077012684973 0.13268309473410902 0.5699644519204604 -0.07235075313491703 -0.6649245719511477 -45.81933366960089 25.16298722312267 -21.26679118845352 18.22218655459615 -22.783885486140075 -50.618873448422995 4.677218774749998 -10.89951769353703 4.041031049792915 -0.20872145632974537 -0.321863566611433 -0.37977463283028196 -0.12424224824022942 0.2861343668154203 -0.17529819243055242 -0.35203510017674455 -0.12088895886308373 0.24490363640594742 -5.7652154024537845 4.089504475445673 -0.7535461697103574 -0.3943870755075838 -0.39057166780419117 0.049368020351470365 -2.711238895281507 1.0532017230810378 -0.22932021296901955 -0.317059782510372 0.4696638710107637 -0.5196495432344441 -8.065963343712111 0.10585384487003449 0.2820815566775169 -0.2898615423485581 -0.3701092748244792 -0.5061410832425985 -1.6167794145190073 -0.8756379889193038 -0.30443220347804645 0.37149281501822995 -0.4318960198300608 0.4078560484682902 -25.193494263050532 -29.349585825827837 -21.910003762971964 -4.410914821653078 50.033201802567326 5.518069276205105 -3.253083565110731 -8.100769987722495 -7.777924021128918 0.06287680050843332 0.045686321605208705 -0.49498082094306217 30.762970531156917 -27.2564128829749 25.130659937781 4.901582378135277 50.78011372415949 -4.728242422284109 4.3300359903700185 -8.45276207905181 11.194847389285565
